Kill Theory After Dark Horrorfest 4

Seven college students visit a secluded vacation home to celebrate
Graduation and become trapped in a deadly game by a mysterious
Killer. Forced to kill one another by 6 a.m. the following morning, only
One of them can remain alive. Whoever remains will be allowed to walk
Away with his or her life. However, if morning comes and more than one
Are still breathing everyone dies. Friends and couples must test their trust, 
As the clock ticks away. Some will fight for love, some for survive; but all will
Change, because deep down….we’re all killers……….

General
Complete name                    : After Ddark Horrorfest 4 Kill Theory
Format                           : MPEG-PS
File size                        : 1 024 MiB
Duration                         : 20mn 40s
Overall bit rate                 : 6 926 Kbps

Video
ID                               : 224 (0xE0)
Format                           : MPEG Video
Format version                   : Version 2
Format profile                   : Main@Main
Format settings, Matrix          : Default
Duration                         : 20mn 40s
Bit rate mode                    : Variable
Bit rate                         : 6 202 Kbps
Nominal bit rate                 : 9 800 Kbps
Width                            : 720 pixels
Height                           : 480 pixels
Display aspect ratio             : 16/9
Frame rate                       : 29.970 fps
Standard                         : NTSC
Colorimetry                      : 4:2:0
Scan type                        : Progressive
Bits/(Pixel*Frame)               : 0.599
Stream size                      : 917 MiB (90%)

Audio
ID                               : 128 (0x80)
Format                           : AC-3
Format/Info                      : Audio Coding 3
Duration                         : 20mn 40s
Bit rate mode                    : Constant
Bit rate                         : 448 Kbps
Channel(s)                       : 6 channels
Channel positions                : Front: L C R, Surround: L R, LFE
Sampling rate                    : 48.0 KHz
Stream size                      : 66.2 MiB (6%)

Text
ID                               : 32 (0x20)
Format                           : RLE
Format/Info                      : Run-length encoding

Menu
Format                           : DVD-Video



